Coordinates
version=1
nRows=54
nColumns=12
inDegrees=yes

Units are S.I. units (second, meters, Newtons, ...)
Angles are in degrees

endheader
time	SC_y	SC_z	SC_x	AC_y	AC_z	AC_x	GH_y	GH_z	GH_yy	EL_x	PS_y
       0.0              -39.36          36.65          80.65          34.08         -9.959         -1.656         -87.51           47.1         -84.17          32.05          115.2
   0.02043              -39.36          36.65          80.65          34.09         -9.957         -1.657          -87.5          47.09         -84.16          32.05          115.2
   0.04085              -39.35          36.64          80.64          34.09         -9.955         -1.659          -87.5          47.09         -84.16          32.06          115.2
   0.06128              -39.35          36.64          80.64          34.09         -9.953         -1.661          -87.5          47.08         -84.15          32.07          115.1
   0.08171              -39.35          36.63          80.63          34.09          -9.95         -1.663         -87.49          47.07         -84.14          32.08          115.1
    0.1021              -39.34          36.63          80.63           34.1         -9.947         -1.665         -87.49          47.07         -84.13          32.09          115.1
    0.1226              -39.34          36.62          80.62           34.1         -9.944         -1.667         -87.48          47.06         -84.12           32.1          115.1
     0.143              -39.33          36.62          80.62           34.1         -9.941         -1.669         -87.48          47.05         -84.11          32.12          115.1
    0.1634              -39.33          36.61          80.61           34.1         -9.938         -1.672         -87.48          47.04          -84.1          32.13          115.1
    0.1838              -39.32           36.6           80.6          34.11         -9.934         -1.675         -87.47          47.03         -84.09          32.14          115.1
    0.2043              -39.32           36.6           80.6          34.11         -9.931         -1.678         -87.46          47.02         -84.07          32.16          115.1
    0.2247              -39.31          36.59          80.59          34.12         -9.926         -1.681         -87.46          47.01         -84.06          32.17          115.0
    0.2451              -39.31          36.58          80.58          34.12         -9.922         -1.684         -87.45           47.0         -84.04          32.19          115.0
    0.2656               -39.3          36.57          80.57          34.12         -9.917         -1.688         -87.45          46.98         -84.03          32.21          115.0
     0.286              -39.29          36.56          80.56          34.13         -9.912         -1.692         -87.44          46.97         -84.01          32.23          115.0
    0.3064              -39.28          36.55          80.55          34.13         -9.906         -1.696         -87.43          46.95         -83.99          32.25          115.0
    0.3268              -39.28          36.54          80.54          34.14           -9.9         -1.701         -87.42          46.94         -83.97          32.28          114.9
    0.3473              -39.27          36.52          80.52          34.15         -9.893         -1.706         -87.41          46.92         -83.95           32.3          114.9
    0.3677              -39.26          36.51          80.51          34.15         -9.886         -1.711          -87.4           46.9         -83.92          32.33          114.9
    0.3881              -39.24           36.5          80.49          34.16         -9.878         -1.717         -87.39          46.88         -83.89          32.36          114.8
    0.4085              -39.23          36.48          80.48          34.17         -9.869         -1.724         -87.38          46.85         -83.86           32.4          114.8
     0.429              -39.22          36.46          80.46          34.18          -9.86         -1.731         -87.36          46.82         -83.83          32.43          114.8
    0.4494               -39.2          36.44          80.43          34.19         -9.849         -1.739         -87.35          46.79         -83.79          32.48          114.7
    0.4698              -39.19          36.42          80.41           34.2         -9.837         -1.748         -87.33          46.76         -83.75          32.52          114.7
    0.4903              -39.17          36.39          80.39          34.21         -9.824         -1.758         -87.31          46.73         -83.71          32.57          114.6
    0.5107              -39.15          36.37          80.36          34.23         -9.809         -1.769         -87.29          46.69         -83.66          32.63          114.6
    0.5311              -39.12          36.33          80.32          34.24         -9.793         -1.782         -87.27          46.64          -83.6          32.69          114.5
    0.5515               -39.1           36.3          80.29          34.26         -9.774         -1.796         -87.24          46.59         -83.54          32.77          114.4
     0.572              -39.07          36.26          80.25          34.28         -9.753         -1.812         -87.21          46.53         -83.47          32.85          114.3
    0.5924              -39.03          36.22           80.2           34.3          -9.73          -1.83         -87.18          46.47         -83.39          32.94          114.2
    0.6128               -39.0          36.16          80.15          34.33         -9.703          -1.85         -87.14          46.39          -83.3          33.05          114.1
    0.6332              -38.95          36.11          80.09          34.35         -9.672         -1.874          -87.1          46.31         -83.19          33.17          114.0
    0.6537               -38.9          36.04          80.01          34.39         -9.636         -1.901         -87.05          46.21         -83.07          33.31          113.8
    0.6741              -38.84          35.96          79.93          34.43         -9.594         -1.932         -86.99          46.09         -82.92          33.47          113.7
    0.6945              -38.77          35.87          79.84          34.47         -9.545         -1.969         -86.92          45.96         -82.76          33.66          113.5
     0.715              -38.69          35.76          79.72          34.53         -9.488         -2.013         -86.84           45.8         -82.56          33.88          113.2
    0.7354               -38.6          35.63          79.59          34.59         -9.419         -2.065         -86.74          45.61         -82.33          34.15          112.9
    0.7558              -38.48          35.47          79.43          34.67         -9.337         -2.127         -86.62          45.38         -82.05          34.47          112.6
    0.7762              -38.34          35.29          79.23          34.76         -9.238         -2.202         -86.48          45.11         -81.71          34.86          112.2
    0.7967              -38.17          35.06          78.99          34.87         -9.117         -2.294         -86.31          44.78          -81.3          35.33          111.7
    0.8171              -37.96          34.77           78.7          35.01         -8.968         -2.407          -86.1          44.36         -80.79          35.91          111.1
    0.8375              -37.69          34.42          78.33          35.19         -8.781         -2.548         -85.83          43.85         -80.15          36.64          110.3
    0.8579              -37.36          33.98          77.87          35.41         -8.546         -2.726          -85.5           43.2         -79.35          37.55          109.3
    0.8784              -36.94          33.41          77.28          35.69         -8.248         -2.952         -85.08          42.38         -78.33          38.72          108.1
    0.8988               -36.4          32.69          76.53          36.05         -7.866         -3.241         -84.53          41.33         -77.03          40.21          106.5
    0.9192              -35.71          31.76          75.56           36.5         -7.376         -3.612         -83.84          39.97         -75.36          42.12          104.4
    0.9397              -34.82          30.58          74.33          37.09         -6.749         -4.087         -82.95          38.25         -73.22          44.56          101.8
    0.9601              -33.71          29.09          72.78          37.83         -5.962         -4.683         -81.83          36.07         -70.54          47.63          98.57
    0.9805              -32.35          27.28          70.89          38.73         -5.002          -5.41         -80.47          33.43         -67.27          51.37          94.59
     1.001              -30.78          25.17          68.69          39.77          -3.89         -6.252         -78.89          30.36         -63.47          55.71          89.97
     1.021              -29.07          22.89          66.32           40.9         -2.686         -7.164         -77.18          27.04         -59.37          60.41          84.96
     1.042              -27.37          20.62          63.95          42.02         -1.481         -8.076         -75.47          23.72         -55.26           65.1          79.96
     1.062               -25.8          18.51          61.76          43.07        -0.3691         -8.919         -73.89          20.65         -51.47          69.44          75.34
     1.083              -24.44           16.7          59.87          43.96         0.5905         -9.645         -72.53           18.0          -48.2          73.18          71.35
